<svg xmlns="http://www.w3.org/2000/svg" xmlns:xlink="http://www.w3.org/1999/xlink" viewBox="0 0 64.93 73.68"><defs><style>.cls-1{opacity:0.8;fill:url(#linear-gradient);}.cls-2{fill:#93d500;}.cls-3{fill:#fff;}.cls-4{fill:#ff8300;}</style><linearGradient id="linear-gradient" x1="31.36" y1="74.62" x2="55.69" y2="50.29" gradientUnits="userSpaceOnUse"><stop offset="0" stop-color="#231f20"/><stop offset="0.29" stop-color="#131112" stop-opacity="0.55"/><stop offset="0.67" stop-color="#050405" stop-opacity="0.14"/><stop offset="1" stop-opacity="0"/></linearGradient></defs><title>location_pin</title><g id="Capa_2" data-name="Capa 2"><g id="Contact_Us" data-name="Contact Us"><path class="cls-1" d="M63.93,61.8c3.5-3-2.51-5.48-13.43-5.48S27.91,58.77,24.41,61.8s6,11.88,6,11.88S60.44,64.83,63.93,61.8Z"/><path class="cls-2" d="M61.84,30.92A30.92,30.92,0,0,0,0,30.92C0,55.59,30.92,73.68,30.92,73.68S61.84,56.58,61.84,30.92Z"/><circle class="cls-3" cx="30.92" cy="30.92" r="21.76"/><path class="cls-4" d="M38.67,28.09A.89.89,0,0,0,38,27.8a.93.93,0,0,0-.64.26l-3.19,3.19a.88.88,0,0,0-.05,1.18,4.87,4.87,0,1,1-7.43,0,.88.88,0,0,0-.05-1.18l-3.19-3.19a.86.86,0,0,0-.63-.26h0a.89.89,0,0,0-.63.29,11.12,11.12,0,1,0,16.45,0ZM23.82,35.57A6.63,6.63,0,1,0,36,32l2-2a9.37,9.37,0,1,1-15,0l2,2A6.76,6.76,0,0,0,23.82,35.57Z"/><path class="cls-2" d="M41.36,16.87a1,1,0,0,0-.87-.32,13.52,13.52,0,0,0-5.62,2.34c-2.63,1.83-6,5.46-7,12.37-.12.74-.68,4.5.92,6a2.38,2.38,0,0,0,1.66.65,3.23,3.23,0,0,0,.68-.08c2.51-.52,2.24-4.52,2.16-5.32a1,1,0,0,0-1.12-.91,1,1,0,0,0-.91,1.11c.14,1.41-.14,3-.56,3.13s-.46,0-.5-.06c-.56-.52-.6-2.59-.31-4.22.75-5,2.81-8.65,6.13-11A12.91,12.91,0,0,1,39.21,19a14,14,0,0,1-4.37,6.92,9.67,9.67,0,0,1-3.32,1.84,1,1,0,0,0,.47,2,11,11,0,0,0,4.08-2.2,16.49,16.49,0,0,0,5.54-9.73A1.05,1.05,0,0,0,41.36,16.87Z"/></g></g></svg>