<svg xmlns="http://www.w3.org/2000/svg" viewBox="0 0 24 19.5"><defs><style>.cls-1{fill:#f3f6f6;}</style></defs><title>logo_twitter</title><g id="Capa_2" data-name="Capa 2"><g id="Home"><path class="cls-1" d="M24,2.31a10.38,10.38,0,0,1-2.84.78A4.89,4.89,0,0,0,23.33.37a10.14,10.14,0,0,1-3.12,1.19A4.92,4.92,0,0,0,11.7,4.92,5.07,5.07,0,0,0,11.81,6,13.94,13.94,0,0,1,1.67.9,4.93,4.93,0,0,0,3.18,7.47,4.81,4.81,0,0,1,1,6.87v0A5,5,0,0,0,4.9,11.76a5.3,5.3,0,0,1-1.29.16,4.13,4.13,0,0,1-.93-.09,5,5,0,0,0,4.6,3.43,9.9,9.9,0,0,1-6.1,2.1A9.12,9.12,0,0,1,0,17.29,13.81,13.81,0,0,0,7.55,19.5a13.91,13.91,0,0,0,14-14c0-.22,0-.43,0-.64A9.82,9.82,0,0,0,24,2.31Z"/></g></g></svg>