<svg xmlns="http://www.w3.org/2000/svg" viewBox="0 0 24 22.94"><defs><style>.cls-1{fill:#f3f6f6;}</style></defs><title>logo_linkedin</title><g id="Capa_2" data-name="Capa 2"><g id="Home"><rect class="cls-1" x="0.3" y="7.45" width="5.16" height="15.48"/><path class="cls-1" d="M22.37,8.87a5.54,5.54,0,0,0-4.29-1.78,5.91,5.91,0,0,0-1.79.25A3.86,3.86,0,0,0,14.93,8a6.57,6.57,0,0,0-.88.81,7,7,0,0,0-.61.82V7.45H8.3V8.2c0,.5,0,2,0,4.63s0,6,0,10.11h5.14V14.3A3.67,3.67,0,0,1,13.61,13a3.28,3.28,0,0,1,1-1.33,2.52,2.52,0,0,1,1.65-.54,2.23,2.23,0,0,1,2,.93,4.52,4.52,0,0,1,.63,2.57v8.28H24V14.06A7.39,7.39,0,0,0,22.37,8.87Z"/><path class="cls-1" d="M2.91,0A2.94,2.94,0,0,0,.8.76,2.52,2.52,0,0,0,0,2.67,2.57,2.57,0,0,0,.78,4.58a2.82,2.82,0,0,0,2.06.76h0A2.93,2.93,0,0,0,5,4.58a2.47,2.47,0,0,0,.79-1.91A2.59,2.59,0,0,0,5,.76,2.83,2.83,0,0,0,2.91,0Z"/></g></g></svg>