<svg xmlns="http://www.w3.org/2000/svg" viewBox="0 0 157.32 38.29"><defs><style>.cls-1{fill:#ff8300;}.cls-2{fill:#838585;}</style></defs><title>logo_lulosoft_gray_orange</title><g id="Capa_2" data-name="Capa 2"><g id="Job_Vacancy" data-name="Job Vacancy"><path class="cls-1" d="M83,31a10.88,10.88,0,0,0,4.94,1.56c2.27,0,3.25-.83,3.25-2.17,0-1.7-2.58-2.47-5.2-3.5-3.09-1.18-6.75-3.29-6.75-7.52,0-4.74,3.86-8,9.79-8a12.27,12.27,0,0,1,8.23,2.82l-.41.92s-1.47,3.75-5.19,2.33A11.31,11.31,0,0,0,89.22,17c-2,0-2.88.72-2.88,2,0,1.65,2.37,2.27,5,3.25,3.25,1.18,6.9,3,6.9,7.67s-3.65,8.24-10.5,8.24a17.38,17.38,0,0,1-9.26-3.28l1.46-3A2.09,2.09,0,0,1,83,31Z"/><path class="cls-1" d="M111.55,11.29C118,11.29,124,16.18,124,24.68s-6,13.39-12.41,13.39-12.47-4.9-12.47-13.39S105.06,11.29,111.55,11.29Zm0,20.65c3.09,0,4.68-2.83,4.68-7.26s-1.59-7.27-4.68-7.27-4.69,2.84-4.69,7.27S108.4,31.94,111.55,31.94Z"/><path class="cls-1" d="M157.18,37.4a17.17,17.17,0,0,1-4.75.67c-6.33,0-8.81-4-8.81-9.89V17.83h-7.88V37.45h-5.16c-2.78,0-2.41-3.15-2.41-3.15V17.83h-3.39V12.21l3.39-.26V10.56c0-5.4,2.53-9.83,9.43-9.83a8.3,8.3,0,0,1,3.71.53v1.5s0,4-3.49,4c-1.32,0-2.08,1-2.08,3.65V11.9H144V5.1h4.22a2.78,2.78,0,0,1,2.94,3v3.8h3.89s2.23.18,2.23,2.12v3.81H151.2V28.08c0,2.88,1.35,4.06,2.78,4.06,3.34,0,3.2,3.89,3.2,3.89Z"/><path class="cls-2" d="M14.37,33.23H5.1V3.51A3.23,3.23,0,0,0,2.48,0H0V37.67H17.52V35.78S17.43,33.23,14.37,33.23Z"/><path class="cls-2" d="M33.8,14.58v15.3c-2.39,2.93-4.06,4-6.36,4-3.06,0-4.3-1.82-4.3-6.3V14.77a2.87,2.87,0,0,0-1.92-2.89l-3.13,0V28.11c0,6.75,2.71,10.18,8.06,10.18,3.58,0,6.05-1.95,7.85-3.9v3.28h2.57a2.27,2.27,0,0,0,1.65-.6,2.21,2.21,0,0,0,.58-1.43V11.86H36.32A2.52,2.52,0,0,0,33.8,14.58Z"/><path class="cls-2" d="M64.72,11.24c-5.95,0-12,4.67-12,13.58s6,13.47,12,13.47,12-4.63,12-13.47S70.67,11.24,64.72,11.24Zm6.82,13.58c0,5.49-2.74,9.19-6.82,9.19s-6.82-3.7-6.82-9.19,2.74-9.3,6.82-9.3S71.54,19.26,71.54,24.82Z"/><path class="cls-2" d="M45.48.22h-1.6V35.85a1.78,1.78,0,0,0,1.92,1.82h3.08V3.56A3.25,3.25,0,0,0,45.48.22Z"/></g></g></svg>