<svg xmlns="http://www.w3.org/2000/svg" viewBox="0 0 18 25"><defs><style>.cls-1{fill:#ff8300;}</style></defs><title>ic_scroll_down</title><g id="Capa_2" data-name="Capa 2"><g id="Home"><path class="cls-1" d="M9,0A9.06,9.06,0,0,0,0,9.1v6.77a9.18,9.18,0,0,0,2.63,6.45A8.9,8.9,0,0,0,9,25a9.08,9.08,0,0,0,9-9.13V9.13A9.08,9.08,0,0,0,9,0ZM9,2.91a6.16,6.16,0,0,1,6.09,6.22v6.74A6.16,6.16,0,0,1,9,22.09a6.16,6.16,0,0,1-6.09-6.22V9.1A6.15,6.15,0,0,1,9,2.91Z"/><path class="cls-1" d="M9,18.52a1.45,1.45,0,0,0,1.45-1.45V14.33a1.45,1.45,0,1,0-2.9,0v2.74A1.45,1.45,0,0,0,9,18.52Z"/></g></g></svg>