<svg xmlns="http://www.w3.org/2000/svg" viewBox="0 0 94.19 63.96"><defs><style>.cls-1{fill:#4287a2;}.cls-2{fill:#ff9800;}</style></defs><title>logo_mysql</title><g id="Capa_2" data-name="Capa 2"><g id="Home"><path class="cls-1" d="M22.64,58.27H19Q18.81,49.08,18,41h0l-5.54,17.3H9.62L4.12,41h0q-.6,7.77-.77,17.3H0Q.32,46.69,1.61,36.56h4.5l5.24,15.95h0l5.27-15.95H21q1.41,11.86,1.67,21.71m15.76-16q-2.22,12-5.85,17.51Q29.72,64,26.34,64a6.11,6.11,0,0,1-2.22-.54V61.49a11.14,11.14,0,0,0,1.51.09,3.67,3.67,0,0,0,2.55-.87,3.15,3.15,0,0,0,1.15-2.37,15.67,15.67,0,0,0-.9-3.7l-4-12.39H28l2.87,9.26a12.53,12.53,0,0,1,.8,4.41A60.12,60.12,0,0,0,35,42.25Z"/><path class="cls-2" d="M86.78,58.27H76.46V36.56h3.47v19h6.85Zm-13,.53-4-2a7.62,7.62,0,0,0,1-1c1.7-2,2.54-4.94,2.54-8.85q0-10.77-8.46-10.77A8,8,0,0,0,58.38,39c-1.7,2-2.54,4.93-2.54,8.81s.75,6.62,2.25,8.4q2.05,2.41,6.21,2.41a9.81,9.81,0,0,0,2.84-.38l5.2,3ZM60.82,53.93Q59.5,51.8,59.5,47.11q0-8.2,5-8.2a4.18,4.18,0,0,1,3.83,2q1.32,2.12,1.32,6.75,0,8.27-5,8.27a4.18,4.18,0,0,1-3.83-2m-6.5-1.68a5.78,5.78,0,0,1-2,4.54,8,8,0,0,1-5.44,1.77,10.87,10.87,0,0,1-6.17-2l.93-1.87A10.59,10.59,0,0,0,46.28,56a5,5,0,0,0,3.08-.86,3,3,0,0,0,1.18-2.42c0-1.29-.9-2.39-2.55-3.31s-4.57-2.58-4.57-2.58A5.21,5.21,0,0,1,41,42.16a5.4,5.4,0,0,1,1.85-4.27,7,7,0,0,1,4.77-1.62,9.89,9.89,0,0,1,5.5,1.61l-.84,1.86a10.59,10.59,0,0,0-4.17-.9,3.69,3.69,0,0,0-2.57.81,2.66,2.66,0,0,0-1,2.06c0,1.28.92,2.4,2.62,3.34,1.54.84,4.66,2.61,4.66,2.61a5.13,5.13,0,0,1,2.53,4.59"/><path class="cls-1" d="M91.14,29.29a12,12,0,0,0-5.09.73c-.39.16-1,.16-1.08.66.22.21.24.55.43.84a6.12,6.12,0,0,0,1.36,1.6c.55.42,1.1.83,1.68,1.2,1,.63,2.18,1,3.17,1.63.58.37,1.16.84,1.74,1.23.28.21.46.55.84.68v-.08c-.19-.23-.24-.57-.42-.84L93,36.18a12.42,12.42,0,0,0-2.73-2.64c-.84-.58-2.68-1.37-3-2.34l0-.05A10.12,10.12,0,0,0,89,30.73c.89-.24,1.71-.19,2.62-.42.42-.11.84-.24,1.26-.37V29.7c-.47-.47-.81-1.1-1.31-1.54a35.3,35.3,0,0,0-4.33-3.23c-.81-.53-1.86-.86-2.73-1.31-.31-.16-.84-.24-1-.5a10.84,10.84,0,0,1-1.08-2c-.76-1.44-1.49-3-2.15-4.57a27.76,27.76,0,0,0-1.34-3A26.5,26.5,0,0,0,68.76,3.73a12.66,12.66,0,0,0-3.35-1.07l-2-.11a9.89,9.89,0,0,1-1.21-.92c-1.5-.94-5.35-3-6.45-.29-.71,1.71,1,3.39,1.65,4.26a12.35,12.35,0,0,1,1.34,2C59,8,59,8.48,59.19,9a31.65,31.65,0,0,0,1.36,3.52,12,12,0,0,0,1,1.62c.21.3.58.42.66.9a7.37,7.37,0,0,0-.61,2,11.58,11.58,0,0,0,.77,8.82c.42.66,1.41,2.1,2.75,1.55,1.18-.48.92-2,1.26-3.28.08-.32,0-.53.18-.73v.05c.37.73.74,1.44,1.08,2.17A14.82,14.82,0,0,0,71,29.05c.63.47,1.13,1.28,1.91,1.57v-.08h-.05a3,3,0,0,0-.6-.52,12.43,12.43,0,0,1-1.36-1.57A33.44,33.44,0,0,1,68,23.67c-.42-.81-.79-1.7-1.13-2.52-.16-.31-.16-.78-.42-.94A9.32,9.32,0,0,0,65.17,22a15,15,0,0,0-.74,4l-.1.06c-.83-.21-1.13-1.08-1.44-1.81a11.36,11.36,0,0,1-.24-7c.18-.55,1-2.28.66-2.8s-.68-.79-1-1.19a10.24,10.24,0,0,1-1-1.68c-.63-1.46-.94-3.09-1.62-4.56a15.13,15.13,0,0,0-1.31-2A13.44,13.44,0,0,1,57,2.89c-.13-.29-.31-.76-.1-1.07a.41.41,0,0,1,.36-.34c.34-.29,1.32.07,1.66.23A13.66,13.66,0,0,1,61.52,3c.37.27.77.77,1.24.9h.55c.84.18,1.78.05,2.57.29A16.92,16.92,0,0,1,69.66,6a23.31,23.31,0,0,1,8.18,9c.31.6.45,1.15.73,1.78.56,1.29,1.24,2.6,1.79,3.86a17.5,17.5,0,0,0,1.86,3.51c.4.55,2,.84,2.68,1.13.52.24,1.34.45,1.81.73.89.55,1.78,1.19,2.62,1.79.42.31,1.73,1,1.81,1.5M64.38,6.49a3.87,3.87,0,0,0-1.07.13v0h0a8,8,0,0,0,.84,1.08c.21.42.39.84.6,1.26l0-.06a1.47,1.47,0,0,0,.55-1.31,4.29,4.29,0,0,1-.31-.55c-.16-.26-.5-.39-.71-.6"/><path class="cls-2" d="M93.64,58.27h.54V55.61h-.81l-.67,1.81L92,55.61h-.79v2.66h.52v-2h0l.75,2h.39l.76-2v2Zm-4.38,0h.57V56.06h.76v-.45H88.47v.45h.79v2.21Z"/></g></g></svg>