<svg xmlns="http://www.w3.org/2000/svg" viewBox="0 0 88.92 53.17"><defs><style>.cls-1{fill:#1a2b3c;}.cls-2{fill:#f90;}</style></defs><title>logo_aws</title><g id="Capa_2" data-name="Capa 2"><g id="Home"><path class="cls-1" d="M25.06,19.31a9.17,9.17,0,0,0,.32,2.63,17,17,0,0,0,.95,2.13,1.3,1.3,0,0,1,.21.68,1.18,1.18,0,0,1-.56.89l-1.87,1.24a1.38,1.38,0,0,1-.77.27,1.34,1.34,0,0,1-.88-.42,8.6,8.6,0,0,1-1.07-1.39c-.29-.5-.59-1.06-.92-1.74a10.91,10.91,0,0,1-8.69,4.08,8.08,8.08,0,0,1-5.91-2.13,7.59,7.59,0,0,1-2.19-5.68,7.6,7.6,0,0,1,2.69-6.09,10.74,10.74,0,0,1,7.24-2.31,23.18,23.18,0,0,1,3.14.24c1.09.15,2.22.39,3.4.65V10.2c0-2.24-.47-3.81-1.39-4.73s-2.54-1.36-4.82-1.36a13.33,13.33,0,0,0-3.2.39,23.59,23.59,0,0,0-3.19,1,8.67,8.67,0,0,1-1,.39A2.24,2.24,0,0,1,6,6c-.41,0-.62-.29-.62-.91V3.61a1.86,1.86,0,0,1,.21-1A2.3,2.3,0,0,1,6.46,2,17.24,17.24,0,0,1,10.18.62,18.16,18.16,0,0,1,14.8.06c3.52,0,6.09.8,7.74,2.39S25,6.48,25,9.73v9.58Zm-12,4.5a9.49,9.49,0,0,0,3.05-.54,6.55,6.55,0,0,0,2.81-1.89,4.61,4.61,0,0,0,1-1.89,10.48,10.48,0,0,0,.3-2.57V15.67a27.38,27.38,0,0,0-2.72-.5A22.1,22.1,0,0,0,14.71,15a6.83,6.83,0,0,0-4.41,1.19,4.14,4.14,0,0,0-1.45,3.4A4.12,4.12,0,0,0,10,22.71,4.09,4.09,0,0,0,13.05,23.81ZM36.8,27a1.67,1.67,0,0,1-1.12-.29,2.45,2.45,0,0,1-.63-1.16L28.1,2.69a5.42,5.42,0,0,1-.26-1.18.65.65,0,0,1,.71-.74h2.9a1.68,1.68,0,0,1,1.15.29,2.47,2.47,0,0,1,.59,1.16l5,19.58L42.77,2.22a2.1,2.1,0,0,1,.57-1.16A2.08,2.08,0,0,1,44.52.77h2.36a1.84,1.84,0,0,1,1.19.29,2.08,2.08,0,0,1,.56,1.16L53.3,22,58.42,2.22A2.59,2.59,0,0,1,59,1.06,2,2,0,0,1,60.16.77h2.75a.66.66,0,0,1,.74.74,2.88,2.88,0,0,1-.06.47,4.71,4.71,0,0,1-.2.74L56.26,25.58a2.3,2.3,0,0,1-.62,1.15,1.88,1.88,0,0,1-1.13.3H52a1.74,1.74,0,0,1-1.18-.3,2,2,0,0,1-.56-1.18L45.64,6.48l-4.55,19a2.43,2.43,0,0,1-.56,1.19,1.89,1.89,0,0,1-1.19.29Zm38,.8a19.79,19.79,0,0,1-4.55-.53,13.36,13.36,0,0,1-3.4-1.19,1.68,1.68,0,0,1-1.1-1.65V22.92c0-.62.24-.92.68-.92a1.6,1.6,0,0,1,.53.09c.18.06.45.18.74.3a15.92,15.92,0,0,0,3.26,1,17.45,17.45,0,0,0,3.52.36,8,8,0,0,0,4.31-1A3.18,3.18,0,0,0,80.33,20a2.84,2.84,0,0,0-.8-2.07,7.47,7.47,0,0,0-3-1.54l-4.29-1.33a9,9,0,0,1-4.73-3,7,7,0,0,1-1.48-4.29,6.48,6.48,0,0,1,.8-3.28A7.52,7.52,0,0,1,69,2,9.42,9.42,0,0,1,72.05.5,13.08,13.08,0,0,1,75.78,0a14.62,14.62,0,0,1,2,.12c.68.09,1.3.21,1.92.32s1.15.3,1.69.48a6,6,0,0,1,1.24.53,2.63,2.63,0,0,1,.89.74,1.64,1.64,0,0,1,.26,1V4.55c0,.63-.23,1-.68,1A3.19,3.19,0,0,1,82,5.15,13.54,13.54,0,0,0,76.28,4a7.61,7.61,0,0,0-3.93.83A2.85,2.85,0,0,0,71,7.45a2.79,2.79,0,0,0,.88,2.1,8.91,8.91,0,0,0,3.26,1.63l4.2,1.33a9,9,0,0,1,4.58,2.84,6.66,6.66,0,0,1,1.36,4.14,7.53,7.53,0,0,1-.77,3.43,7.84,7.84,0,0,1-2.16,2.6A9.57,9.57,0,0,1,79,27.18,14.19,14.19,0,0,1,74.8,27.8Z"/><path class="cls-2" d="M80.39,42.17c-9.73,7.19-23.86,11-36,11a65.23,65.23,0,0,1-44-16.76c-.91-.83-.08-2,1-1.31a88.66,88.66,0,0,0,44,11.69A87.68,87.68,0,0,0,79,39.92C80.6,39.19,82,41,80.39,42.17Zm4-4.61c-1.24-1.6-8.22-.77-11.38-.39-1,.12-1.1-.71-.24-1.33,5.56-3.9,14.7-2.78,15.76-1.48s-.29,10.47-5.5,14.85c-.8.68-1.56.33-1.21-.56C83.05,45.72,85.68,39.13,84.44,37.56Z"/></g></g></svg>