<svg xmlns="http://www.w3.org/2000/svg" viewBox="0 0 120 34.57"><defs><style>.cls-1{fill:#0089d9;}</style></defs><title>logo_azure</title><g id="Capa_2" data-name="Capa 2"><g id="Home"><g id="layer1"><g id="layer1-1"><path id="path21" class="cls-1" d="M20.65,32.72l10.52-1.86.1,0L25.86,24.4c-3-3.54-5.42-6.45-5.42-6.47S26,2.51,26.07,2.45,29.88,9,35.29,18.37l9.27,16.08.07.12H10.22Zm66-1.55C84,31,82.49,29.51,82.08,26.72A43.65,43.65,0,0,1,82,21.13V16.47h2.32V21c0,4.07,0,4.55,0,4.83a4.32,4.32,0,0,0,1,2.5,2.9,2.9,0,0,0,1.62.86,6.78,6.78,0,0,0,1.56,0,3.51,3.51,0,0,0,1.76-1,4.63,4.63,0,0,0,1.19-2.28l.07-.31v-9.1h2.36V30.83H91.58V29.69c0-.77,0-1.13,0-1.12s-.08.09-.14.2a4.72,4.72,0,0,1-1.81,1.82,5.12,5.12,0,0,1-3,.58Zm26.58,0a6.16,6.16,0,0,1-2.69-.88,6.56,6.56,0,0,1-3-5.1,12.64,12.64,0,0,1,0-2.6,8.5,8.5,0,0,1,1.66-4.15,8.59,8.59,0,0,1,1-1,6.2,6.2,0,0,1,2.56-1.22,8.44,8.44,0,0,1,2.08-.13A5.51,5.51,0,0,1,118.51,18,7.24,7.24,0,0,1,120,22.46c0,.3,0,.81,0,1.15l0,.61H109.84v.23a5.59,5.59,0,0,0,.45,2.14,4.14,4.14,0,0,0,3.61,2.6,9.65,9.65,0,0,0,1.68-.07,7.08,7.08,0,0,0,3.17-1.3l.22-.17a4.21,4.21,0,0,1,0,1.06V29.8l-.24.15a8.45,8.45,0,0,1-3.4,1.17,18.92,18.92,0,0,1-2.15,0Zm4.42-9.09A4.59,4.59,0,0,0,116.45,19a3.16,3.16,0,0,0-1.79-.87,5.42,5.42,0,0,0-1.39,0,3.66,3.66,0,0,0-1.9,1,5.3,5.3,0,0,0-1.25,2,5.68,5.68,0,0,0-.24,1l0,.12h7.77ZM48.81,30.8l3.83-10.06,3.82-10h2.45L59,11c.31.79,7.65,19.83,7.65,19.84H64.05L63,28,61.93,25.2H53.42l0,.1c0,.05-.47,1.32-1,2.81l-1,2.72H50.11a8.23,8.23,0,0,1-1.3,0Zm12.35-7.75-1.58-4.28c-1.63-4.4-1.72-4.66-1.85-5.37-.06-.33-.09-.34-.13,0a5.76,5.76,0,0,1-.22,1c0,.13-.77,2.14-1.62,4.47S54.21,23,54.21,23s1.56,0,3.47,0Zm6.29,7.41V30.1l4.23-5.83,4.24-5.83H68.25v-2H79.34v.66L75.1,23c-2.34,3.22-4.24,5.86-4.24,5.87h8.37v2H67.45Zm31.1.35s0-3.24,0-7.18V16.47h2.32V18c0,.81,0,1.47,0,1.47a1.44,1.44,0,0,0,.13-.29,5.15,5.15,0,0,1,1.29-2,3.43,3.43,0,0,1,1.83-.91,4.14,4.14,0,0,1,.76,0,3.7,3.7,0,0,1,1.07.14l.09,0v2.4l-.27-.14a2.92,2.92,0,0,0-1.53-.3,2.6,2.6,0,0,0-.92.17,3,3,0,0,0-1.46,1.2,7,7,0,0,0-1,2.78c0,.17,0,1.56,0,4.3v4H99.71C99.08,30.83,98.56,30.82,98.55,30.81ZM0,30.76s2.55-4.44,5.67-9.84l5.67-9.82,6.6-5.55L24.57,0a1,1,0,0,1-.1.27L17.29,15.65l-7,15.11H0Z"/></g></g></g></g></svg>