<svg xmlns="http://www.w3.org/2000/svg" viewBox="0 0 126.87 50.09"><defs><style>.cls-1{fill:#66666a;}.cls-2{fill:#7fa758;}.cls-3{fill:#aec53f;}.cls-4{fill:#9b999e;}</style></defs><title>logo_codigo</title><g id="Capa_2" data-name="Capa 2"><g id="Home"><path class="cls-1" d="M17.5,32.42a9.21,9.21,0,0,1-7,2.66,10.17,10.17,0,0,1-7.49-3,10.15,10.15,0,0,1-3-7.47,10.07,10.07,0,0,1,3.07-7.44,10.18,10.18,0,0,1,7.47-3c2.67,0,6.09,1.17,7,2.21a18.71,18.71,0,0,0-2.33,5.12,6.2,6.2,0,0,0-4.63-2,5.06,5.06,0,0,0-3.7,1.51,4.93,4.93,0,0,0-1.53,3.66,5,5,0,0,0,1.53,3.68,5,5,0,0,0,3.7,1.53,6.58,6.58,0,0,0,4.7-2.36A11.06,11.06,0,0,0,17.5,32.42Z"/><path class="cls-1" d="M38.25,24.44A10.43,10.43,0,0,1,27.75,35,10.38,10.38,0,0,1,17.22,24.44,10.06,10.06,0,0,1,20.28,17a10.22,10.22,0,0,1,7.47-3,10.4,10.4,0,0,1,10.5,10.47Zm-5.31,0a5.22,5.22,0,0,0-5.19-5.17,5,5,0,0,0-3.69,1.51,4.94,4.94,0,0,0-1.54,3.66,5.24,5.24,0,0,0,5.23,5.21,5,5,0,0,0,3.68-1.53A5.07,5.07,0,0,0,32.94,24.44Z"/><path class="cls-1" d="M60.45,24.43A10.41,10.41,0,0,1,50,35,10.4,10.4,0,0,1,39.42,24.44,10.07,10.07,0,0,1,42.49,17,10.18,10.18,0,0,1,50,14a10.5,10.5,0,0,1,5.19,1.33v-9h5.3Zm-5.3,0a4.94,4.94,0,0,0-1.54-3.64A5,5,0,0,0,50,19.27a5.09,5.09,0,0,0-3.7,1.51,4.93,4.93,0,0,0-1.53,3.66,5,5,0,0,0,1.53,3.68A5.07,5.07,0,0,0,50,29.65a5,5,0,0,0,3.67-1.53A5,5,0,0,0,55.15,24.44Z"/><path class="cls-1" d="M68.46,9.58a3,3,0,0,1-.87,2.17,2.87,2.87,0,0,1-2.14.88A3,3,0,0,1,62.4,9.58a2.87,2.87,0,0,1,.88-2.14,3,3,0,0,1,2.17-.86,3,3,0,0,1,3,3Z"/><path class="cls-1" d="M68,34.49h-5.3V14.39a8,8,0,0,0,5.3,0Z"/><path class="cls-2" d="M91,24.42a10.14,10.14,0,0,0-1.64-5.58c-1.1-1.71-1.24-2.23-3.09-3.12A17,17,0,0,1,90,11.09L85.41,6.5a19.08,19.08,0,0,0-5,7.43,10.41,10.41,0,0,0-10.5,10.49A10.38,10.38,0,0,0,80.43,35a8.2,8.2,0,0,0,2-.23,4.89,4.89,0,0,1,3.25,4.85,5,5,0,0,1-1.53,3.67,5,5,0,0,1-3.65,1.54,5.11,5.11,0,0,1-3.7-1.51,5,5,0,0,1-1.53-3.68A3.2,3.2,0,0,1,75.49,38a10.79,10.79,0,0,1-4.74-2.41,9.7,9.7,0,0,0-.83,4,10.35,10.35,0,0,0,1.81,5.82,10,10,0,0,0,8.73,4.68,10.37,10.37,0,0,0,5.85-1.77A9.88,9.88,0,0,0,91,39.59,10.16,10.16,0,0,0,87.69,32,9.94,9.94,0,0,0,91,24.42Zm-6.82,3.69a4.94,4.94,0,0,1-3.67,1.54,5.24,5.24,0,0,1-5.23-5.23,5,5,0,0,1,1.53-3.67,5.08,5.08,0,0,1,3.7-1.52,5.22,5.22,0,0,1,5.18,5.19A5,5,0,0,1,84.13,28.11Z"/><path class="cls-3" d="M102.76,0A23.77,23.77,0,0,0,94.1,1.61l2.36,6.1a16.9,16.9,0,0,1,6.3-1.16,17.56,17.56,0,0,1,0,35.12,22,22,0,0,1-9.39-2.44A10.76,10.76,0,0,1,92,45.87a29.56,29.56,0,0,0,10.78,2.35,24.11,24.11,0,0,0,0-48.22Z"/><path class="cls-2" d="M110.27,17a10.12,10.12,0,0,0-7.45-3,11,11,0,0,0-3.24.46l-.46.16,1.86,4.8.08.17a3.69,3.69,0,0,1,.65-.18,5.72,5.72,0,0,1,1.11-.11A5.22,5.22,0,0,1,108,24.44a5.07,5.07,0,0,1-1.51,3.68,5.23,5.23,0,0,1-8.91-3.68,4.9,4.9,0,0,1,1.54-3.66l.24-.23-3.76-3.78-.26.24a10.06,10.06,0,0,0-3.06,7.43,10.51,10.51,0,1,0,21,0A10.08,10.08,0,0,0,110.27,17Z"/><path class="cls-4" d="M120.68.43h-.6V.28h1.37V.43h-.6V2.05h-.17Z"/><path class="cls-4" d="M121.83.28h.25l.64,1.49.65-1.49h.23V2.05h-.16V.49h0l-.67,1.56h-.07L122,.49h0V2.05h-.17Z"/></g></g></svg>