<svg xmlns="http://www.w3.org/2000/svg" xmlns:xlink="http://www.w3.org/1999/xlink" viewBox="0 0 110.83 58.3"><defs><style>.cls-1{fill:none;}.cls-2{clip-path:url(#clip-path);}.cls-3{fill:url(#Degradado_sin_nombre_3);}.cls-4{fill:#767cb5;}.cls-5{fill:#fff;}</style><clipPath id="clip-path"><path class="cls-1" d="M0,29.15C0,45.25,24.81,58.3,55.41,58.3h0c30.61,0,55.42-13,55.42-29.15h0C110.83,13.05,86,0,55.41,0h0C24.81,0,0,13.05,0,29.15"/></clipPath><radialGradient id="Degradado_sin_nombre_3" cx="-1491.02" cy="-1916.83" r="0.16" gradientTransform="matrix(453.82, 0, 0, -453.82, 676693.12, -869889.65)" gradientUnits="userSpaceOnUse"><stop offset="0" stop-color="#adb2d6"/><stop offset="0.3" stop-color="#adb2d6"/><stop offset="0.75" stop-color="#454b8b"/><stop offset="1" stop-color="#454b8b"/></radialGradient></defs><title>logo_php</title><g id="Capa_2" data-name="Capa 2"><g id="Home"><g id="g3438"><g id="g3440"><g class="cls-2"><g id="g3442"><g id="g3448"><g id="g3450"><path id="path3462" class="cls-3" d="M0,29.15C0,45.25,24.81,58.3,55.41,58.3h0c30.61,0,55.42-13,55.42-29.15h0C110.83,13.05,86,0,55.41,0h0C24.81,0,0,13.05,0,29.15"/></g></g></g></g></g><g id="g3466"><g id="g3472"><path id="path3474" class="cls-4" d="M55.41,56.14c29.41,0,53.25-12.09,53.25-27s-23.84-27-53.25-27S2.16,14.25,2.16,29.15s23.85,27,53.25,27"/></g></g><g id="g3478"><g id="g3484"><path id="path3486" d="M30.11,32.5c2.42,0,4.22-.45,5.36-1.33a7.18,7.18,0,0,0,2.32-4.48c.38-2,.24-3.34-.43-4.08S35.2,21.47,33,21.47H29.11L27,32.5ZM17.47,46.07a.64.64,0,0,1-.47-.21.61.61,0,0,1-.12-.5l5.68-29.21a.59.59,0,0,1,.59-.49H35.38c3.85,0,6.71,1,8.51,3.1s2.37,5,1.66,8.61a13.25,13.25,0,0,1-4.18,7.48,11.94,11.94,0,0,1-4.46,2.67,20.22,20.22,0,0,1-6.12.79H25.84l-1.42,7.28a.59.59,0,0,1-.59.48Z"/></g><g id="g3488"><path id="path3490" class="cls-5" d="M29.6,22.07H33c2.69,0,3.63.59,3.94.95.53.58.63,1.81.29,3.56a6.57,6.57,0,0,1-2.09,4.11c-1,.8-2.72,1.2-5,1.2H27.7Zm5.78-7H23.15A1.21,1.21,0,0,0,22,16L16.29,45.24a1.2,1.2,0,0,0,1.18,1.44h6.36a1.2,1.2,0,0,0,1.18-1l1.32-6.79h4.46a20.83,20.83,0,0,0,6.31-.82,12.42,12.42,0,0,0,4.68-2.8,13.94,13.94,0,0,0,4.36-7.81c.74-3.83.14-6.89-1.8-9.11s-4.93-3.31-9-3.31m-9.14,18h3.87c2.56,0,4.47-.49,5.73-1.45a7.69,7.69,0,0,0,2.54-4.84q.63-3.27-.57-4.6T33,20.87H28.61L26.24,33.1m9.14-16.84q5.52,0,8.06,2.9T45,27.25a13.1,13.1,0,0,1-1.41,3.91A12.83,12.83,0,0,1,41,34.41,11.29,11.29,0,0,1,36.73,37a19.72,19.72,0,0,1-5.94.76H25.34l-1.51,7.76H17.47l5.68-29.21H35.38"/></g><g id="g3492"><path id="path3494" d="M60.14,38.31a.58.58,0,0,1-.46-.22.6.6,0,0,1-.13-.5l2.51-12.92a3.22,3.22,0,0,0-.16-2.49c-.22-.23-.85-.61-2.73-.61H54.62L51.46,37.82a.6.6,0,0,1-.59.49H44.56a.62.62,0,0,1-.47-.22.6.6,0,0,1-.12-.5L49.64,8.38a.62.62,0,0,1,.6-.49h6.31a.58.58,0,0,1,.46.22.6.6,0,0,1,.13.5l-1.37,7.05h4.89c3.73,0,6.26.66,7.73,2s2,3.59,1.4,6.56L67.14,37.82a.6.6,0,0,1-.59.49Z"/></g><g id="g3496"><path id="path3498" class="cls-5" d="M56.55,7.29H50.24a1.21,1.21,0,0,0-1.19,1L43.38,37.48a1.19,1.19,0,0,0,.25,1,1.2,1.2,0,0,0,.93.44h6.31a1.2,1.2,0,0,0,1.18-1l3.06-15.77h4.06c1.88,0,2.27.4,2.29.42s.26.69,0,2L59,37.48a1.19,1.19,0,0,0,.25,1,1.2,1.2,0,0,0,.93.44h6.41a1.2,1.2,0,0,0,1.18-1l2.65-13.6c.62-3.19.09-5.58-1.58-7.11s-4.25-2.17-8.14-2.17H56.5l1.23-6.34a1.22,1.22,0,0,0-.25-1,1.2,1.2,0,0,0-.93-.44m0,1.2L55,16.26h5.62q5.31,0,7.33,1.85t1.21,6l-2.65,13.6H60.14l2.51-12.93c.29-1.47.18-2.47-.31-3s-1.56-.8-3.17-.8H54.12L50.87,37.71H44.56L50.24,8.49h6.31"/></g><g id="g3500"><path id="path3502" d="M79.78,32.5a8.82,8.82,0,0,0,5.36-1.33,7.18,7.18,0,0,0,2.32-4.48c.38-2,.24-3.34-.43-4.08s-2.16-1.14-4.39-1.14H78.78l-2.15,11ZM67.14,46.07a.64.64,0,0,1-.47-.21.61.61,0,0,1-.12-.5l5.67-29.21a.61.61,0,0,1,.59-.49H85.05c3.85,0,6.71,1,8.51,3.1s2.37,5,1.66,8.61A13.25,13.25,0,0,1,91,34.85a11.94,11.94,0,0,1-4.46,2.67,20.22,20.22,0,0,1-6.12.79h-5l-1.41,7.28a.59.59,0,0,1-.59.48Z"/></g><g id="g3504"><path id="path3506" class="cls-5" d="M79.27,22.07h3.37c2.69,0,3.63.59,3.94.95.53.58.63,1.81.29,3.56a6.58,6.58,0,0,1-2.1,4.11c-1,.8-2.71,1.2-5,1.2H77.36Zm5.78-7H72.81a1.21,1.21,0,0,0-1.18,1L66,45.24a1.2,1.2,0,0,0,1.18,1.44H73.5a1.2,1.2,0,0,0,1.18-1L76,38.91h4.46a20.87,20.87,0,0,0,6.31-.82,12.42,12.42,0,0,0,4.68-2.8,13.94,13.94,0,0,0,4.36-7.81c.74-3.83.14-6.89-1.8-9.11s-4.93-3.31-9-3.31m-9.14,18h3.87c2.56,0,4.47-.49,5.73-1.45a7.73,7.73,0,0,0,2.54-4.84q.63-3.27-.57-4.6t-4.84-1.34H78.28L75.91,33.1m9.14-16.84q5.52,0,8.06,2.9t1.52,8.09a13.1,13.1,0,0,1-1.41,3.91,12.83,12.83,0,0,1-2.59,3.25A11.29,11.29,0,0,1,86.4,37a19.72,19.72,0,0,1-5.94.76H75L73.5,45.47H67.14l5.67-29.21H85.05"/></g></g></g></g></g></svg>