<svg xmlns="http://www.w3.org/2000/svg" viewBox="0 0 72.03 72.25"><defs><style>.cls-1{fill:#93d500;}</style></defs><title>ic_nearshore_developers</title><g id="Capa_2" data-name="Capa 2"><g id="Home"><path class="cls-1" d="M71.57,68.52,59.46,40.2a3.7,3.7,0,0,0-1-1.56,3.49,3.49,0,0,0-2.1-.48L49.26,38a39.18,39.18,0,0,0,5.31-13A23.36,23.36,0,0,0,53.1,11,19.66,19.66,0,0,0,34.45.05,19.67,19.67,0,0,0,17.59,13.57c-2.67,8.88,1.48,18.22,4.9,24.53l-6.91,0a3.78,3.78,0,0,0-1.95.37,3.78,3.78,0,0,0-1.31,1.85Q9,48.08,5.7,55.82,4,59.68,2.39,63.55c-.21.49-.47,1-.75,1.6A14.24,14.24,0,0,0,0,69.46a2.29,2.29,0,0,0,.49,1.86,4,4,0,0,0,3.08.93h65.1c.66,0,2.67,0,3.21-1.35A3.09,3.09,0,0,0,71.57,68.52Zm-5.2-.79H51l12.59-6.54ZM16.76,42.6h0c2.56,0,5.18,0,8,0h0a.87.87,0,0,1,.84.46c.63,1,1.3,1.92,1.94,2.85l.8,1.14.27.41.05.08L10,57.1l.26-.61c.29-.66.57-1.33.85-2l1.16-2.68C13.52,49,14.79,46,16,43.1A.67.67,0,0,1,16.76,42.6ZM48.38,29.89a84.26,84.26,0,0,1-10,16.43c-.55.75-1.13,1.49-1.74,2.27l-.82,1L33.93,47c-1.5-2.05-2.91-4-4.28-6a59.87,59.87,0,0,1-7.19-13.65,19.29,19.29,0,0,1,.23-14.17,13.94,13.94,0,0,1,13-8.64,13.24,13.24,0,0,1,1.54.08A14.44,14.44,0,0,1,50.29,17,22.14,22.14,0,0,1,48.38,29.89ZM24.06,55l7.38-3.77.72.87c.59.72,1.17,1.43,1.77,2.14a2.73,2.73,0,0,0,2,1.16h0a2.54,2.54,0,0,0,1.92-1.2c2.81-3.68,5.56-7.42,8.23-11a1.05,1.05,0,0,1,1-.52c2.68,0,5.35,0,7.94,0h0a.68.68,0,0,1,.74.51c1.48,3.49,3,7,4.47,10.46l1.41,3.28.07.17v0l-.32.17-.82.44-3.08,1.6C52.39,62,47,64.73,41.77,67.44a3,3,0,0,1-1.28.31c-.32,0-.65,0-1,.07a5.65,5.65,0,0,1-2.58-.15A5.9,5.9,0,0,1,35,66c-.24-.28-.49-.57-.75-.83l-8.46-8.45L24.49,55.4l-.33-.34Zm-3.95,2.4c2.5,2.53,5.05,5.08,7.52,7.55l2.8,2.8,0,0h-25l.36-.82c.48-1.13.93-2.2,1.42-3.28,0-.1.22-.18.36-.25l.07,0,5.49-2.82,6.24-3.2C19.71,57.18,19.86,57.1,20.11,57.35Z"/><path class="cls-1" d="M35.93,12.74h0a6.45,6.45,0,0,0-6.44,6.46,6.49,6.49,0,0,0,6.44,6.5h0a6.49,6.49,0,0,0,6.46-6.47A6.5,6.5,0,0,0,35.93,12.74Zm0,8.47h0a2,2,0,0,1-2-2,1.94,1.94,0,0,1,.6-1.41,2,2,0,0,1,1.39-.57h0a2,2,0,0,1,1.94,2A2,2,0,0,1,35.92,21.21Z"/></g></g></svg>