<svg xmlns="http://www.w3.org/2000/svg" viewBox="0 0 81.92 72"><defs><style>.cls-1{fill:#93d500;}</style></defs><title>ic_office_setup</title><g id="Capa_2" data-name="Capa 2"><g id="Home"><path class="cls-1" d="M79.54,9.6H57.76V7.2A7.21,7.21,0,0,0,50.56,0H31.36a7.21,7.21,0,0,0-7.2,7.2V9.6H2.4A2.41,2.41,0,0,0,0,12V64.8A7.21,7.21,0,0,0,7.2,72H74.72a7.21,7.21,0,0,0,7.2-7.2V12.05h0A2.33,2.33,0,0,0,79.54,9.6ZM29,7.2a2.41,2.41,0,0,1,2.4-2.4h19.2A2.41,2.41,0,0,1,53,7.2V9.6H29Zm47.23,7.2L68.74,36.76a2.4,2.4,0,0,1-2.28,1.64H53V36a2.39,2.39,0,0,0-2.4-2.4H31.36A2.39,2.39,0,0,0,29,36v2.4H15.46a2.41,2.41,0,0,1-2.28-1.64L5.73,14.4Zm-28,24v4.8H33.76V38.4Zm29,26.4a2.41,2.41,0,0,1-2.4,2.4H7.2a2.41,2.41,0,0,1-2.4-2.4v-38L8.63,38.28a7.2,7.2,0,0,0,6.83,4.92H29v2.4a2.39,2.39,0,0,0,2.4,2.4h19.2A2.39,2.39,0,0,0,53,45.6V43.2h13.5a7.2,7.2,0,0,0,6.83-4.92l3.83-11.49Z"/></g></g></svg>