<svg xmlns="http://www.w3.org/2000/svg" viewBox="0 0 78 73.12"><defs><style>.cls-1{fill:#93d500;}</style></defs><title>ic_software_solutions</title><g id="Capa_2" data-name="Capa 2"><g id="Home"><path class="cls-1" d="M71.14,0H6.86A6.87,6.87,0,0,0,0,6.86v45.7a6.86,6.86,0,0,0,6.86,6.85H26.69l-3.05,9.14H16.15a2.29,2.29,0,1,0,0,4.57h45.7a2.29,2.29,0,1,0,0-4.57H54.36l-3-9.14H71.14A6.86,6.86,0,0,0,78,52.56V6.86A6.87,6.87,0,0,0,71.14,0ZM28.46,68.55l3.05-9.14h15l3,9.14Zm45-16a2.29,2.29,0,0,1-2.29,2.28H6.86a2.29,2.29,0,0,1-2.29-2.28V50.27H73.43Zm-48.51-20-2.08-2.08,3.23-3.23,2.08,2.08a2.3,2.3,0,0,0,2.78.35A15.75,15.75,0,0,1,35,28a2.28,2.28,0,0,0,1.71-2.21V22.85h4.58v2.93A2.28,2.28,0,0,0,43,28a15.75,15.75,0,0,1,4.07,1.7,2.3,2.3,0,0,0,2.78-.35l2.08-2.08,3.23,3.23-2.08,2.08a2.28,2.28,0,0,0-.35,2.78,15.38,15.38,0,0,1,1.69,4.07,2.28,2.28,0,0,0,2.21,1.71h2.94V45.7H50.19a10.9,10.9,0,0,0,.24-2.28,11.43,11.43,0,0,0-22.86,0,10.9,10.9,0,0,0,.24,2.28H18.43V41.13h2.94a2.28,2.28,0,0,0,2.21-1.71,15.72,15.72,0,0,1,1.69-4.07A2.28,2.28,0,0,0,24.92,32.57ZM45.86,43.42a6.8,6.8,0,0,1-.4,2.28H32.54a6.8,6.8,0,0,1-.4-2.28,6.86,6.86,0,0,1,13.72,0ZM73.43,45.7H64.14V38.85a2.3,2.3,0,0,0-2.29-2.29H58.32q-.36-1-.81-2l2.5-2.5a2.29,2.29,0,0,0,0-3.23l-6.47-6.47a2.28,2.28,0,0,0-3.23,0l-2.5,2.5a20.56,20.56,0,0,0-2-.81V20.57a2.29,2.29,0,0,0-2.29-2.29H34.43a2.29,2.29,0,0,0-2.29,2.29V24.1a20.56,20.56,0,0,0-1.95.81l-2.5-2.5a2.28,2.28,0,0,0-3.23,0L18,28.88a2.29,2.29,0,0,0,0,3.23l2.5,2.5q-.45,1-.81,2H16.15a2.3,2.3,0,0,0-2.29,2.29V45.7H4.57V6.86A2.3,2.3,0,0,1,6.86,4.57H71.14a2.3,2.3,0,0,1,2.29,2.29Z"/><path class="cls-1" d="M61.85,9.14A6.86,6.86,0,1,0,68.71,16,6.86,6.86,0,0,0,61.85,9.14Zm0,9.14A2.29,2.29,0,1,1,64.14,16,2.28,2.28,0,0,1,61.85,18.28Z"/></g></g></svg>