<svg xmlns="http://www.w3.org/2000/svg" viewBox="0 0 81.6 43.56"><defs><style>.cls-1{opacity:0.5;}.cls-2{fill:#93d500;}</style></defs><title>vc_number_2</title><g id="Capa_2" data-name="Capa 2"><g id="About"><g class="cls-1"><path class="cls-2" d="M26.31,5.34q3.57,5.34,3.57,16.44T26.31,38.22q-3.57,5.34-11.37,5.34T3.57,38.22Q0,32.88,0,21.78T3.57,5.34Q7.14,0,14.94,0T26.31,5.34Zm-15,7q-.93,2.76-.93,9.42t.93,9.42A3.59,3.59,0,0,0,14.94,34a3.59,3.59,0,0,0,3.63-2.76q.93-2.76.93-9.42t-.93-9.42A3.59,3.59,0,0,0,14.94,9.6,3.59,3.59,0,0,0,11.31,12.36Z"/><path class="cls-2" d="M64.38,42.78H35.64V39.12a13.61,13.61,0,0,1,1.83-6.66,25.38,25.38,0,0,1,4.47-5.88q2.64-2.58,5.28-4.86a39.21,39.21,0,0,0,4.47-4.47,6.43,6.43,0,0,0,1.83-3.87,3.76,3.76,0,0,0-1.14-2.91,4.43,4.43,0,0,0-3.12-1.05q-3.72,0-5,4.14l-8.88-2.64a15.93,15.93,0,0,1,1.41-3.66,16.26,16.26,0,0,1,2.58-3.48A11.49,11.49,0,0,1,43.65,1a16.8,16.8,0,0,1,6-1A15.09,15.09,0,0,1,60,3.48,11.93,11.93,0,0,1,64,13a11.75,11.75,0,0,1-1.47,5.7,18.06,18.06,0,0,1-3.66,4.71q-2.19,2-4.41,3.75T50.31,30.6a8.75,8.75,0,0,0-2.43,3.24h16.5Z"/><path class="cls-2" d="M79.83,41.82a5.82,5.82,0,0,1-4.23,1.74,5.94,5.94,0,0,1-5.94-5.94,5.82,5.82,0,0,1,1.74-4.23,5.67,5.67,0,0,1,4.2-1.77,6,6,0,0,1,6,6A5.67,5.67,0,0,1,79.83,41.82Z"/></g></g></g></svg>