<svg xmlns="http://www.w3.org/2000/svg" viewBox="0 0 78.72 43.56"><defs><style>.cls-1{opacity:0.5;}.cls-2{fill:#93d500;}</style></defs><title>vc_number_3</title><g id="Capa_2" data-name="Capa 2"><g id="About"><g class="cls-1"><path class="cls-2" d="M26.31,5.34q3.57,5.34,3.57,16.44T26.31,38.22q-3.57,5.34-11.37,5.34T3.57,38.22Q0,32.88,0,21.78T3.57,5.34Q7.14,0,14.94,0T26.31,5.34Zm-15,7q-.93,2.76-.93,9.42t.93,9.42A3.59,3.59,0,0,0,14.94,34a3.59,3.59,0,0,0,3.63-2.76q.93-2.76.93-9.42t-.93-9.42A3.59,3.59,0,0,0,14.94,9.6,3.59,3.59,0,0,0,11.31,12.36Z"/><path class="cls-2" d="M49.5,43.56a16.8,16.8,0,0,1-6-1,11.49,11.49,0,0,1-4.32-2.76,16.26,16.26,0,0,1-2.58-3.48,15.93,15.93,0,0,1-1.41-3.66L44,30q1.32,4.14,5.22,4.14a4.6,4.6,0,0,0,3.36-1.23,4.36,4.36,0,0,0,1.26-3.27,4.09,4.09,0,0,0-1.29-3.09A5.05,5.05,0,0,0,49,25.32H43.14V17.46l7.5-7.74H36.9V.78H62.4V9.66l-7.62,7.26q9.48,1.92,9.48,12.3a13.68,13.68,0,0,1-4.17,10.35A14.7,14.7,0,0,1,49.5,43.56Z"/><path class="cls-2" d="M77,41.82a5.82,5.82,0,0,1-4.23,1.74,5.94,5.94,0,0,1-5.94-5.94,5.82,5.82,0,0,1,1.74-4.23,5.67,5.67,0,0,1,4.2-1.77,6,6,0,0,1,6,6A5.67,5.67,0,0,1,77,41.82Z"/></g></g></g></svg>